<svg xmlns="http://www.w3.org/2000/svg" width="299" height="68" viewBox="0 0 299 68"><defs><clipPath id="7rjga"><path fill="#fff" d="M8 0h283a8 8 0 0 1 8 8v52a8 8 0 0 1-8 8H8a8 8 0 0 1-8-8V8a8 8 0 0 1 8-8z"/></clipPath></defs><g><g><path fill="#fff" d="M8 0h283a8 8 0 0 1 8 8v52a8 8 0 0 1-8 8H8a8 8 0 0 1-8-8V8a8 8 0 0 1 8-8z"/><path fill="none" stroke="#8bb6e1" stroke-linecap="round" stroke-linejoin="round" stroke-miterlimit="20" stroke-width="2" d="M8 0h283a8 8 0 0 1 8 8v52a8 8 0 0 1-8 8H8a8 8 0 0 1-8-8V8a8 8 0 0 1 8-8z" clip-path="url(&quot;#7rjga&quot;)"/></g></g></svg>