<?xml version="1.0" encoding="utf-8"?>
<!-- Generator: Adobe Illustrator 22.0.1, SVG Export Plug-In . SVG Version: 6.00 Build 0)  -->
<svg version="1.1" id="Capa_1" xmlns="http://www.w3.org/2000/svg" xmlns:xlink="http://www.w3.org/1999/xlink" x="0px" y="0px"
	 viewBox="0 0 512 512" style="enable-background:new 0 0 512 512;" xml:space="preserve">
<style type="text/css">
	.st0{fill:#495866;}
</style>
<g>
	<path class="st0" d="M113.7,109.5h141.6v30.3H113.7L113.7,109.5z"/>
	<path class="st0" d="M113.7,197.1h141.6v30.3H113.7L113.7,197.1z"/>
	<path class="st0" d="M113.7,284.7h78.5v30.3h-78.5V284.7z"/>
	<path class="st0" d="M479.2,375.5V220.8C528,160,490.2,66.5,413.5,55.9V0H11v442.1c0,38.5,31.3,69.9,69.9,69.9h328.4
		c38.5,0,69.9-31.3,69.9-69.9v-37h-65.7v-51.4L479.2,375.5z M398.3,316.7l-50.5,16.8v-86.7c29.4,17.6,71.7,17.6,101.1,0v86.7
		L398.3,316.7z M470.8,157.5c0,39.9-32.5,72.4-72.4,72.4c-96.1-4-96.1-140.9,0-144.9C438.3,85,470.8,117.5,470.8,157.5L470.8,157.5z
		 M448.9,442.1c0,21.8-17.8,39.6-39.6,39.6h-271c9.4-13.4,13.2-29.3,12.4-46.4h298.2V442.1z M120.4,405.1v36.8
		c0,21.9-17.8,39.7-39.6,39.8c-21.8,0-39.6-17.8-39.6-39.6V30.3h342v25.6C306.4,66.5,268.7,160,317.5,220.8v154.7l65.7-21.9v51.4
		L120.4,405.1z"/>
	<path class="st0" d="M375.9,143.3h47.4v30.3h-47.4V143.3z"/>
</g>
</svg>
