<?xml version="1.0" encoding="utf-8"?>
<!-- Generator: Adobe Illustrator 22.0.1, SVG Export Plug-In . SVG Version: 6.00 Build 0)  -->
<svg version="1.1" id="Layer_1" xmlns="http://www.w3.org/2000/svg" xmlns:xlink="http://www.w3.org/1999/xlink" x="0px" y="0px"
	 viewBox="0 0 512 512" style="enable-background:new 0 0 512 512;" xml:space="preserve">
<style type="text/css">
	.st0{fill:#495866;}
</style>
<g>
	<path class="st0" d="M15.5,482v30h481v-30h-300V211h150v37L267,301h-40.5v30h30v30h-30v30h270v-30h-30v-30h30v-30H456l-79.5-53v-37
		h120v-90H247.7l-60-60h-21.2V0h-30v61h-60v60h-61v90h91v271H15.5z M436.5,361h-150v-30h150V361z M321,301l40.5-27l40.5,27H321z
		 M136.5,292.2l23.8,23.8l-23.8,23.8V292.2z M166.5,352.2v47.6L142.7,376L166.5,352.2z M325.3,181h-68.8v-30h38.8L325.3,181z
		 M337.7,151h47.6l-23.8,23.8L337.7,151z M466.5,181h-68.8l30-30h38.8V181z M175.3,91l51.2,51.2V181h-120V91H175.3z M45.5,151h31v30
		h-31V151z M166.5,211v68.8l-30-30V211H166.5z M136.5,412.2l30,30V482h-30V412.2z"/>
</g>
</svg>
