<?xml version="1.0" encoding="utf-8"?>
<!-- Generator: Adobe Illustrator 22.0.1, SVG Export Plug-In . SVG Version: 6.00 Build 0)  -->
<svg version="1.1" id="Capa_1" xmlns="http://www.w3.org/2000/svg" xmlns:xlink="http://www.w3.org/1999/xlink" x="0px" y="0px"
	 viewBox="0 0 512 512" style="enable-background:new 0 0 512 512;" xml:space="preserve">
<style type="text/css">
	.st0{fill:#495866;}
</style>
<g>
	<path class="st0" d="M444.6,130V77.5h-30V130h-37.4V16.7L134.7,73.8V130H97.4V77.5h-30V130H0v365.3h512V130L444.6,130z M30,465.3
		V160h104.7v305.3H30z M271,465.3h-30v-30h30V465.3z M347.3,465.3H301v-60h-90v60h-46.3V97.5l182.5-42.9L347.3,465.3L347.3,465.3z
		 M482,465.3H377.3V160H482V465.3z"/>
	<path class="st0" d="M194.7,135.3H241v30h-46.3L194.7,135.3z"/>
	<path class="st0" d="M271,135.3h46.3v30H271V135.3z"/>
	<path class="st0" d="M194.7,195.3H241v30h-46.3L194.7,195.3z"/>
	<path class="st0" d="M271,195.3h46.3v30H271V195.3z"/>
	<path class="st0" d="M194.7,255.3H241v30h-46.3L194.7,255.3z"/>
	<path class="st0" d="M271,255.3h46.3v30H271V255.3z"/>
	<path class="st0" d="M194.7,315.3H241v30h-46.3L194.7,315.3z"/>
	<path class="st0" d="M59.2,195.3h46.3v30H59.2V195.3z"/>
	<path class="st0" d="M59.2,255.3h46.3v30H59.2V255.3z"/>
	<path class="st0" d="M59.2,315.3h46.3v30H59.2V315.3z"/>
	<path class="st0" d="M406.5,195.3h46.3v30h-46.3V195.3z"/>
	<path class="st0" d="M406.5,255.3h46.3v30h-46.3V255.3z"/>
	<path class="st0" d="M406.5,315.3h46.3v30h-46.3V315.3z"/>
	<path class="st0" d="M59.2,375.3h46.3v30H59.2V375.3z"/>
	<path class="st0" d="M406.5,375.3h46.3v30h-46.3V375.3z"/>
	<path class="st0" d="M271,315.3h46.3v30H271V315.3z"/>
</g>
</svg>
