<?xml version="1.0" encoding="utf-8"?>
<!-- Generator: Adobe Illustrator 22.0.1, SVG Export Plug-In . SVG Version: 6.00 Build 0)  -->
<svg version="1.1" id="Capa_1" xmlns="http://www.w3.org/2000/svg" xmlns:xlink="http://www.w3.org/1999/xlink" x="0px" y="0px"
	 viewBox="0 0 512 512" style="enable-background:new 0 0 512 512;" xml:space="preserve">
<style type="text/css">
	.st0{fill:#495866;}
</style>
<g>
	<path class="st0" d="M399.5,60V0h-347v452h60v60h347V60H399.5z M82.5,30h287v233c0,16.5-13.5,30-30,30h-99v99c0,16.5-13.5,30-30,30
		h-128V30z M321.9,323l-51.4,51.4V323H321.9z M429.5,482h-287v-30h68c16.5,0,31.5-6.7,42.4-17.6c0,0,129-129,129-129
		c10.8-10.9,17.6-25.9,17.6-42.4V90h30V482z"/>
	<path class="st0" d="M331,161.5c0-57.9-47.1-105-105-105s-105,47.1-105,105s47.1,105,105,105S331,219.4,331,161.5z M301,161.5
		c0,15.3-4.6,29.5-12.5,41.3L241,155.3V88C275.2,95,301,125.3,301,161.5z M151,161.5c0-36.2,25.8-66.5,60-73.5v79.7l56.3,56.3
		c-11.9,7.9-26.1,12.5-41.3,12.5C184.6,236.5,151,202.9,151,161.5L151,161.5z"/>
</g>
</svg>
