<?xml version="1.0" encoding="utf-8"?>
<!-- Generator: Adobe Illustrator 22.0.1, SVG Export Plug-In . SVG Version: 6.00 Build 0)  -->
<svg version="1.1" id="Capa_1" xmlns="http://www.w3.org/2000/svg" xmlns:xlink="http://www.w3.org/1999/xlink" x="0px" y="0px"
	 viewBox="0 0 512 512" style="enable-background:new 0 0 512 512;" xml:space="preserve">
<style type="text/css">
	.st0{fill:#495866;}
</style>
<g>
	<path class="st0" d="M512,256l-29-51.8l3.7-59.3l-48.7-34l-22.4-55L357,46.2L313,6.4l-57,16.9L199,6.4L155,46.2l-58.6,9.6l-22.4,55
		l-48.7,34l3.7,59.3L0,256l29,51.8l-3.7,59.3l48.7,34l22.4,55l58.6,9.6l44.1,39.9l57-16.9l57,16.9l44.1-39.9l58.6-9.6l22.4-55
		l48.7-34l-3.7-59.3L512,256z M455.5,352.1l-42.1,29.4l-19.4,47.6l-50.7,8.3l-38.1,34.5L256,457.3l-49.3,14.6l-38.1-34.5l-50.7-8.3
		l-19.4-47.6l-42.1-29.4l3.2-51.3L34.6,256l25.1-44.8l-3.2-51.3l42.1-29.4l19.4-47.6l50.7-8.3l38.1-34.5L256,54.7l49.3-14.6
		l38.1,34.5l50.7,8.3l19.4,47.6l42.1,29.4l-3.2,51.3l25.1,44.8l-25.1,44.8L455.5,352.1z"/>
	<path class="st0" d="M168.8,321.8l153-153l21.3,21.3l-153,153L168.8,321.8z"/>
	<path class="st0" d="M314.1,268.8c-25,0-45.3,20.3-45.3,45.3c0,25,20.3,45.3,45.3,45.3c25,0,45.3-20.3,45.3-45.3
		C359.5,289.1,339.1,268.8,314.1,268.8z M314.1,329.3c-8.4,0-15.2-6.8-15.2-15.2c0-8.4,6.8-15.2,15.2-15.2c8.4,0,15.2,6.8,15.2,15.2
		C329.3,322.5,322.5,329.3,314.1,329.3z"/>
	<path class="st0" d="M243.2,197.9c0-25-20.3-45.3-45.3-45.3s-45.3,20.3-45.3,45.3s20.3,45.3,45.3,45.3S243.2,222.9,243.2,197.9z
		 M182.7,197.9c0-8.4,6.8-15.2,15.2-15.2s15.2,6.8,15.2,15.2s-6.8,15.2-15.2,15.2S182.7,206.2,182.7,197.9z"/>
</g>
</svg>
