<?xml version="1.0" encoding="utf-8"?>
<!-- Generator: Adobe Illustrator 22.0.1, SVG Export Plug-In . SVG Version: 6.00 Build 0)  -->
<svg version="1.1" id="Layer_1" xmlns="http://www.w3.org/2000/svg" xmlns:xlink="http://www.w3.org/1999/xlink" x="0px" y="0px"
	 viewBox="0 0 512 512" style="enable-background:new 0 0 512 512;" xml:space="preserve">
<style type="text/css">
	.st0{fill:#495866;}
</style>
<g>
	<rect x="271" y="271" class="st0" width="30" height="30"/>
	<path class="st0" d="M181,98.4l-61,60.3V512h332v-60h60V0H181V98.4z M301,422h-30v-61h30V422z M241,331v91h-30V301h-33l108-85.8
		L394,301h-33v121h-30v-91H241z M422,284.9L286,176.8L150,284.9V180h91V90h181V284.9z M171.5,150l39.5-39.1V150H171.5z M150,482V331
		h31v121h210V331h31v151H150z M482,30v392h-30V60H219.8l-8.8,8.7V30H482z"/>
	<polygon class="st0" points="90,422 60,422 60,331 90,331 90,301 60,301 60,211 90,211 90,181 0,181 0,211 30,211 30,301 0,301 
		0,331 30,331 30,422 0,422 0,452 90,452 	"/>
</g>
</svg>
