<?xml version="1.0" encoding="utf-8"?>
<!-- Generator: Adobe Illustrator 22.0.1, SVG Export Plug-In . SVG Version: 6.00 Build 0)  -->
<svg version="1.1" id="Layer_1" xmlns="http://www.w3.org/2000/svg" xmlns:xlink="http://www.w3.org/1999/xlink" x="0px" y="0px"
	 viewBox="0 0 512 512" style="enable-background:new 0 0 512 512;" xml:space="preserve">
<style type="text/css">
	.st0{fill:#495866;}
</style>
<g>
	<rect x="121" y="151" class="st0" width="60" height="30"/>
	<path class="st0" d="M512,0H61v31H0v180h61v30h97.5l-36.6,113.6c-3.8,2.1-7.3,4.6-10.5,7.4H30v-60H0v210h30v-60h81.4
		c10.6,9.3,24.4,15,39.6,15c33.1,0,60-26.9,60-60c0-7.9-1.5-15.4-4.3-22.3L253.1,241H452v-81.7l60-45.8V0z M91,30h331v31H91V30z
		 M30,181V61h31v120H30z M30,391.8h62.9c-1.2,4.8-1.9,10-1.9,15.2s0.7,10.2,1.9,15H30V391.8z M151,437c-16.5,0-30-13.5-30-30
		s13.5-30,30-30s30,13.5,30,30S167.5,437,151,437z M184.1,357c-8.3-5.5-17.9-9-28.4-9.8L190,241h31.6L184.1,357z M91,211V91h331v120
		H91z M482,98.6l-30,22.9V30h30V98.6z"/>
</g>
</svg>
