<?xml version="1.0" encoding="utf-8"?>
<!-- Generator: Adobe Illustrator 22.0.1, SVG Export Plug-In . SVG Version: 6.00 Build 0)  -->
<svg version="1.1" id="Layer_1" xmlns="http://www.w3.org/2000/svg" xmlns:xlink="http://www.w3.org/1999/xlink" x="0px" y="0px"
	 viewBox="0 0 249.2 247.3" style="enable-background:new 0 0 249.2 247.3;" xml:space="preserve">
<style type="text/css">
	.st0{fill-rule:evenodd;clip-rule:evenodd;fill:#495866;}
</style>
<path class="st0" d="M4.5,72.9l120.6-64l121.6,64V85c-3.4,0.6-6,3-6,6.6v47.9h6v5.6H4.5v-5.6h6.2V91.7c0-3.7-2.7-6.2-6.2-6.7V72.9
	L4.5,72.9z M98.4,37.7L98.4,37.7c11.3-1.3,20.6,7,20.6,18.5v83.4H77.8V61C77.8,49.5,87.1,39.1,98.4,37.7L98.4,37.7z M51.4,59.8
	L51.4,59.8c6,0,10.8,3.7,10.8,9.7v70.1H40.5V72.1C40.5,66,45.4,59.8,51.4,59.8L51.4,59.8z M24.7,73.2L24.7,73.2
	c4.2,0,7.5,2.6,7.5,6.8v59.6H17.2V81.8C17.2,77.6,20.5,73.2,24.7,73.2L24.7,73.2z M153,37.7L153,37.7c-11.3-1.3-20.6,7-20.6,18.5
	v83.4h41.2V61C173.5,49.5,164.3,39.1,153,37.7L153,37.7z M200,59.8L200,59.8c-6,0-10.8,3.7-10.8,9.7v70.1h21.7V72.1
	C210.8,66,206,59.8,200,59.8L200,59.8z M226.6,73.2L226.6,73.2c-4.2,0-7.5,2.6-7.5,6.8v59.6h15.1V81.8
	C234.2,77.6,230.8,73.2,226.6,73.2L226.6,73.2z"/>
<polygon class="st0" points="4.5,151.3 246.7,151.3 246.7,154.1 4.5,154.1 4.5,151.3 "/>
<polygon class="st0" points="0,65.2 124.7,0 127.7,1.6 1.3,67.6 0,65.2 "/>
<polygon class="st0" points="249.2,65.2 125.6,0.6 122.7,2.2 247.9,67.6 249.2,65.2 "/>
<polygon class="st0" points="4.5,231.5 246.7,231.5 246.7,234.3 4.5,234.3 4.5,231.5 "/>
<polygon class="st0" points="4.5,238.3 246.7,238.3 246.7,247.3 4.5,247.3 4.5,238.3 "/>
<path class="st0" d="M13.1,183.7c4.8,0,8.7,3.9,8.7,8.7s-3.9,8.7-8.7,8.7c-4.8,0-8.7-3.9-8.7-8.7S8.3,183.7,13.1,183.7L13.1,183.7z"
	/>
<path class="st0" d="M238,183.7c4.8,0,8.7,3.9,8.7,8.7s-3.9,8.7-8.7,8.7s-8.7-3.9-8.7-8.7S233.3,183.7,238,183.7L238,183.7z"/>
<path class="st0" d="M41.7,222.8h18.4l0.1,0c14.4,0,22.7-7.7,22.7-20.9v-18.8c0-14-9.2-20.9-22.7-20.9H41.7v11.8l18.4,0
	c6.6,0,9.8,3.3,9.8,8.7v4.4H52.5v10.7h17.4v4.6c0,6.1-4.2,8.7-9.9,8.6v0H41.7V222.8L41.7,222.8z M145.7,221.3v-10.9h-6.4v-46.9
	h-38.9v26.5c0,5.4-0.5,9.6-1.5,12.5c-1,3-2.4,5.6-4.2,7.9h-4.6v10.9H145.7L145.7,221.3z M110.3,205.6c0.4-1.2,0.8-3.3,1.2-6.1
	c0.4-2.8,0.7-6,0.7-9.6v-15.3h14.2v35.7h-17.9L110.3,205.6L110.3,205.6z M168.5,221.5v-35.3l10.2,17.6h8l10.3-17.6v35.3h12.5v-58.1
	h-11.9l-14.5,24.3l-14.5-24.3h-12.5v58.1H168.5L168.5,221.5z"/>
</svg>
